# xmcd CD database file
#
# Track frame offsets:
#	150
#	21075
#	45067
#	60325
#	79122
#	95990
#	111225
#	132757
#	155557
#	172007
#	194342
#
# Disc length: 2741 seconds
#
# Revision: 2
# Processed by: cddbd v1.5.2PL0 Copyright (c) Steve Scherf et al.
# Submitted via: CDex 1.51
#
DISCID=890ab30b
DTITLE=Sister Hazel - Sister Hazel
DYEAR=1998
DGENRE=Folk
TTITLE0=Feel It
TTITLE1=Sometimes
TTITLE2=All For You (Acoustic Version)
TTITLE3=Will Not Follow
TTITLE4=One Nation
TTITLE5=Used To Run
TTITLE6=Little Things
TTITLE7=Space Between Us
TTITLE8=Don't Think It's Funny
TTITLE9=Running Through the Fields (For Jeffrey)
TTITLE10=Bring It On Home
EXTD=YEAR: 1998
EXTT0=
EXTT1=
EXTT2=
EXTT3=
EXTT4=
EXTT5=
EXTT6=
EXTT7=
EXTT8=
EXTT9=
EXTT10=
PLAYORDER=
